<svg id="Groupe_2997" data-name="Groupe 2997" xmlns="http://www.w3.org/2000/svg" width="17.674" height="17.674" viewBox="0 0 17.674 17.674">
  <g id="Groupe_62" data-name="Groupe 62">
    <g id="Groupe_61" data-name="Groupe 61">
      <path id="Tracé_41" data-name="Tracé 41" d="M12.54,0H5.134A5.14,5.14,0,0,0,0,5.134V12.54a5.14,5.14,0,0,0,5.134,5.134H12.54a5.14,5.14,0,0,0,5.134-5.134V5.134A5.14,5.14,0,0,0,12.54,0Zm3.753,12.54a3.757,3.757,0,0,1-3.753,3.753H5.134A3.757,3.757,0,0,1,1.381,12.54V5.134A3.757,3.757,0,0,1,5.134,1.381H12.54a3.757,3.757,0,0,1,3.753,3.753Z" fill="#f7f7f7"/>
    </g>
  </g>
  <g id="Groupe_64" data-name="Groupe 64" transform="translate(4.073 4.073)">
    <g id="Groupe_63" data-name="Groupe 63">
      <path id="Tracé_42" data-name="Tracé 42" d="M122.764,118a4.764,4.764,0,1,0,4.764,4.764A4.769,4.769,0,0,0,122.764,118Zm0,8.146a3.383,3.383,0,1,1,3.383-3.383A3.387,3.387,0,0,1,122.764,126.146Z" transform="translate(-118 -118)" fill="#f7f7f7"/>
    </g>
  </g>
  <g id="Groupe_66" data-name="Groupe 66" transform="translate(12.979 3.314)">
    <g id="Groupe_65" data-name="Groupe 65">
      <ellipse id="Ellipse_1" data-name="Ellipse 1" cx="0.69" cy="0.69" rx="0.69" ry="0.69" fill="#f7f7f7"/>
    </g>
  </g>
</svg>
