<svg xmlns="http://www.w3.org/2000/svg" width="20.584" height="23.1" viewBox="0 0 20.584 23.1">
  <g id="blank-user-profile" transform="translate(-2.242 0.884)">
    <path id="Tracé_50" data-name="Tracé 50" d="M82.587,0a4.043,4.043,0,0,0-.438.022A4,4,0,0,0,81.684,0a4.3,4.3,0,0,0-3.049,1.2c-.965.966-1.437,1.98-1.449,4.421a12.333,12.333,0,0,0,1.159,5.032c.77,1.573,2.479,2.981,3.808,3,1.235.016,3.038-1.081,4.128-3A11.686,11.686,0,0,0,87.366,5.6,6.305,6.305,0,0,0,85.69,1.2,5.234,5.234,0,0,0,82.587,0ZM82.154,12.8C81.019,12.8,78,11.03,77.988,5.614A5.28,5.28,0,0,1,79.2,1.761,3.5,3.5,0,0,1,81.684.8a3.01,3.01,0,0,1,.4.023.411.411,0,0,0,.121,0A3.026,3.026,0,0,1,82.587.8c1.141,0,3.812.47,3.978,4.826C86.772,11.049,83.289,12.79,82.154,12.8Z" transform="translate(-69.743 -0.834)" fill="#172a40" stroke="#172a40" stroke-width="0.1"/>
    <path id="Tracé_51" data-name="Tracé 51" d="M16.55,176.216a.4.4,0,0,0,.286.489,9.9,9.9,0,0,1,5.138,3.027v4.362H3.093v-4.362a9.883,9.883,0,0,1,5.069-3.009.4.4,0,0,0-.207-.774,10.325,10.325,0,0,0-5.587,3.415.4.4,0,0,0-.076.235v4.9a.4.4,0,0,0,.4.4H22.375a.4.4,0,0,0,.4-.4v-4.9a.4.4,0,0,0-.077-.235c-1.576-2.174-4.483-3.126-5.66-3.434A.4.4,0,0,0,16.55,176.216Z" transform="translate(0 -162.73)" fill="#172a40" stroke="#172a40" stroke-width="0.1"/>
  </g>
</svg>
